# xmcd CD database file
#
# Track frame offsets:
#	150
#	17215
#	32327
#	49229
#	66774
#	82934
#	99680
#	118971
#	140021
#	159929
#	176304
#	196897
#	213647
#	233749
#	254642
#	266096
#	280177
#	293002
#	313290
#
# Disc length: 4390 seconds
#
# Revision: 0
# Processed by: cddbd v1.5.2PL0 Copyright (c) Steve Scherf et al.
# Submitted via: CDex 1.51
#
DISCID=19112413
DTITLE=LeAnn Rimes - I Need You
DYEAR=2001
DGENRE=Country
TTITLE0=I need you
TTITLE1=But i do love you
TTITLE2=You are
TTITLE3=Soom
TTITLE4=Can't fight the moonlight
TTITLE5=Love must be telling me something
TTITLE6=Written in the stars
TTITLE7=One of these days
TTITLE8=I believe in you
TTITLE9=Together, forever, always
TTITLE10=Please Remenber
TTITLE11=The right king of wrong
TTITLE12=How do i live
TTITLE13=Me and Bobby McGee
TTITLE14=Leavin' on your ming
TTITLE15=Big deal
TTITLE16=Crazy
TTITLE17=All she wants to do is dance
TTITLE18=Some say love
EXTD=YEAR: 2001
EXTT0=
EXTT1=
EXTT2=
EXTT3=
EXTT4=
EXTT5=
EXTT6=
EXTT7=
EXTT8=
EXTT9=
EXTT10=
EXTT11=
EXTT12=
EXTT13=
EXTT14=
EXTT15=
EXTT16=
EXTT17=
EXTT18=
PLAYORDER=
